<mxfile host="65bd71144e">
    <diagram id="bFXT7Ry3img1sakbcl15" name="APIfunction">
        <mxGraphModel dx="1596" dy="1151" grid="1" gridSize="10" guides="1" tooltips="1" connect="1" arrows="1" fold="1" page="1" pageScale="1" pageWidth="850" pageHeight="1100" math="0" shadow="0">
            <root>
                <mxCell id="0"/>
                <mxCell id="1" parent="0"/>
                <mxCell id="2" value="" style="shape=table;html=1;whiteSpace=wrap;startSize=0;container=1;collapsible=0;childLayout=tableLayout;fillColor=#FFFFFF;" vertex="1" parent="1">
                    <mxGeometry x="110" y="230" width="590" height="254" as="geometry"/>
                </mxCell>
                <mxCell id="3" value="" style="shape=partialRectangle;html=1;whiteSpace=wrap;collapsible=0;dropTarget=0;pointerEvents=0;fillColor=none;top=0;left=0;bottom=0;right=0;points=[[0,0.5],[1,0.5]];portConstraint=eastwest;" vertex="1" parent="2">
                    <mxGeometry width="590" height="50" as="geometry"/>
                </mxCell>
                <mxCell id="4" value="API" style="shape=partialRectangle;html=1;whiteSpace=wrap;connectable=0;fillColor=#E6E6E6;top=0;left=0;bottom=0;right=0;overflow=hidden;pointerEvents=1;fontStyle=1" vertex="1" parent="3">
                    <mxGeometry width="230" height="50" as="geometry">
                        <mxRectangle width="230" height="50" as="alternateBounds"/>
                    </mxGeometry>
                </mxCell>
                <mxCell id="5" value="Function" style="shape=partialRectangle;html=1;whiteSpace=wrap;connectable=0;fillColor=#E6E6E6;top=0;left=0;bottom=0;right=0;overflow=hidden;pointerEvents=1;fontStyle=1" vertex="1" parent="3">
                    <mxGeometry x="230" width="360" height="50" as="geometry">
                        <mxRectangle width="360" height="50" as="alternateBounds"/>
                    </mxGeometry>
                </mxCell>
                <mxCell id="6" value="" style="shape=partialRectangle;html=1;whiteSpace=wrap;collapsible=0;dropTarget=0;pointerEvents=0;fillColor=none;top=0;left=0;bottom=0;right=0;points=[[0,0.5],[1,0.5]];portConstraint=eastwest;" vertex="1" parent="2">
                    <mxGeometry y="50" width="590" height="34" as="geometry"/>
                </mxCell>
                <mxCell id="7" value="POST user/registration" style="shape=partialRectangle;html=1;whiteSpace=wrap;connectable=0;fillColor=none;top=0;left=0;bottom=0;right=0;overflow=hidden;pointerEvents=1;align=left;" vertex="1" parent="6">
                    <mxGeometry width="230" height="34" as="geometry">
                        <mxRectangle width="230" height="34" as="alternateBounds"/>
                    </mxGeometry>
                </mxCell>
                <mxCell id="8" value="Processing user information for registration" style="shape=partialRectangle;html=1;whiteSpace=wrap;connectable=0;fillColor=none;top=0;left=0;bottom=0;right=0;overflow=hidden;pointerEvents=1;" vertex="1" parent="6">
                    <mxGeometry x="230" width="360" height="34" as="geometry">
                        <mxRectangle width="360" height="34" as="alternateBounds"/>
                    </mxGeometry>
                </mxCell>
                <mxCell id="9" style="shape=partialRectangle;html=1;whiteSpace=wrap;collapsible=0;dropTarget=0;pointerEvents=0;fillColor=none;top=0;left=0;bottom=0;right=0;points=[[0,0.5],[1,0.5]];portConstraint=eastwest;" vertex="1" parent="2">
                    <mxGeometry y="84" width="590" height="34" as="geometry"/>
                </mxCell>
                <mxCell id="10" value="POST user/login" style="shape=partialRectangle;html=1;whiteSpace=wrap;connectable=0;fillColor=none;top=0;left=0;bottom=0;right=0;overflow=hidden;pointerEvents=1;align=left;" vertex="1" parent="9">
                    <mxGeometry width="230" height="34" as="geometry">
                        <mxRectangle width="230" height="34" as="alternateBounds"/>
                    </mxGeometry>
                </mxCell>
                <mxCell id="11" value="post information to login to the apps" style="shape=partialRectangle;html=1;whiteSpace=wrap;connectable=0;fillColor=none;top=0;left=0;bottom=0;right=0;overflow=hidden;pointerEvents=1;" vertex="1" parent="9">
                    <mxGeometry x="230" width="360" height="34" as="geometry">
                        <mxRectangle width="360" height="34" as="alternateBounds"/>
                    </mxGeometry>
                </mxCell>
                <mxCell id="12" style="shape=partialRectangle;html=1;whiteSpace=wrap;collapsible=0;dropTarget=0;pointerEvents=0;fillColor=none;top=0;left=0;bottom=0;right=0;points=[[0,0.5],[1,0.5]];portConstraint=eastwest;" vertex="1" parent="2">
                    <mxGeometry y="118" width="590" height="34" as="geometry"/>
                </mxCell>
                <mxCell id="13" value="GET loan/record" style="shape=partialRectangle;html=1;whiteSpace=wrap;connectable=0;fillColor=none;top=0;left=0;bottom=0;right=0;overflow=hidden;pointerEvents=1;align=left;" vertex="1" parent="12">
                    <mxGeometry width="230" height="34" as="geometry">
                        <mxRectangle width="230" height="34" as="alternateBounds"/>
                    </mxGeometry>
                </mxCell>
                <mxCell id="14" value="to show data about loan record from database" style="shape=partialRectangle;html=1;whiteSpace=wrap;connectable=0;fillColor=none;top=0;left=0;bottom=0;right=0;overflow=hidden;pointerEvents=1;" vertex="1" parent="12">
                    <mxGeometry x="230" width="360" height="34" as="geometry">
                        <mxRectangle width="360" height="34" as="alternateBounds"/>
                    </mxGeometry>
                </mxCell>
                <mxCell id="15" style="shape=partialRectangle;html=1;whiteSpace=wrap;collapsible=0;dropTarget=0;pointerEvents=0;fillColor=none;top=0;left=0;bottom=0;right=0;points=[[0,0.5],[1,0.5]];portConstraint=eastwest;" vertex="1" parent="2">
                    <mxGeometry y="152" width="590" height="34" as="geometry"/>
                </mxCell>
                <mxCell id="16" value="GET loan/information" style="shape=partialRectangle;html=1;whiteSpace=wrap;connectable=0;fillColor=none;top=0;left=0;bottom=0;right=0;overflow=hidden;pointerEvents=1;align=left;" vertex="1" parent="15">
                    <mxGeometry width="230" height="34" as="geometry">
                        <mxRectangle width="230" height="34" as="alternateBounds"/>
                    </mxGeometry>
                </mxCell>
                <mxCell id="17" value="to show detail information of loan" style="shape=partialRectangle;html=1;whiteSpace=wrap;connectable=0;fillColor=none;top=0;left=0;bottom=0;right=0;overflow=hidden;pointerEvents=1;" vertex="1" parent="15">
                    <mxGeometry x="230" width="360" height="34" as="geometry">
                        <mxRectangle width="360" height="34" as="alternateBounds"/>
                    </mxGeometry>
                </mxCell>
                <mxCell id="18" style="shape=partialRectangle;html=1;whiteSpace=wrap;collapsible=0;dropTarget=0;pointerEvents=0;fillColor=none;top=0;left=0;bottom=0;right=0;points=[[0,0.5],[1,0.5]];portConstraint=eastwest;" vertex="1" parent="2">
                    <mxGeometry y="186" width="590" height="34" as="geometry"/>
                </mxCell>
                <mxCell id="19" value="POST loan/pay" style="shape=partialRectangle;html=1;whiteSpace=wrap;connectable=0;fillColor=none;top=0;left=0;bottom=0;right=0;overflow=hidden;pointerEvents=1;align=left;" vertex="1" parent="18">
                    <mxGeometry width="230" height="34" as="geometry">
                        <mxRectangle width="230" height="34" as="alternateBounds"/>
                    </mxGeometry>
                </mxCell>
                <mxCell id="20" value="to verify payment to third party data" style="shape=partialRectangle;html=1;whiteSpace=wrap;connectable=0;fillColor=none;top=0;left=0;bottom=0;right=0;overflow=hidden;pointerEvents=1;" vertex="1" parent="18">
                    <mxGeometry x="230" width="360" height="34" as="geometry">
                        <mxRectangle width="360" height="34" as="alternateBounds"/>
                    </mxGeometry>
                </mxCell>
                <mxCell id="21" style="shape=partialRectangle;html=1;whiteSpace=wrap;collapsible=0;dropTarget=0;pointerEvents=0;fillColor=none;top=0;left=0;bottom=0;right=0;points=[[0,0.5],[1,0.5]];portConstraint=eastwest;" vertex="1" parent="2">
                    <mxGeometry y="220" width="590" height="34" as="geometry"/>
                </mxCell>
                <mxCell id="22" value="GET loan/validation" style="shape=partialRectangle;html=1;whiteSpace=wrap;connectable=0;fillColor=none;top=0;left=0;bottom=0;right=0;overflow=hidden;pointerEvents=1;align=left;" vertex="1" parent="21">
                    <mxGeometry width="230" height="34" as="geometry">
                        <mxRectangle width="230" height="34" as="alternateBounds"/>
                    </mxGeometry>
                </mxCell>
                <mxCell id="23" value="to validate new loan application" style="shape=partialRectangle;html=1;whiteSpace=wrap;connectable=0;fillColor=none;top=0;left=0;bottom=0;right=0;overflow=hidden;pointerEvents=1;" vertex="1" parent="21">
                    <mxGeometry x="230" width="360" height="34" as="geometry">
                        <mxRectangle width="360" height="34" as="alternateBounds"/>
                    </mxGeometry>
                </mxCell>
                <mxCell id="24" value="API Function" style="text;html=1;strokeColor=none;fillColor=none;align=center;verticalAlign=middle;whiteSpace=wrap;rounded=0;fontSize=35;" vertex="1" parent="1">
                    <mxGeometry x="110" y="110" width="590" height="50" as="geometry"/>
                </mxCell>
            </root>
        </mxGraphModel>
    </diagram>
</mxfile>